<svg width="172" height="42" viewBox="0 0 172 42" fill="none" xmlns="http://www.w3.org/2000/svg" class="h-9 w-[148px]">
    <path
        d="M21.902 14.3667C21.9046 14.3822 21.911 14.39 21.9212 14.39C24.753 14.3906 27.6575 14.39 30.6349 14.3887C31.2418 14.388 31.6602 14.4165 31.8902 14.4742C32.3923 14.5992 32.817 14.846 33.1646 15.2145C33.3447 15.4056 33.5319 15.6764 33.7267 16.0262C34.3406 17.1312 34.957 18.2129 35.5747 19.272C35.8264 19.7027 36.0027 20.0564 36.1036 20.333C36.5259 21.4859 36.4352 22.7743 35.8219 23.8495C33.4782 27.9652 31.0866 32.1677 28.6458 36.4577C27.9124 37.7467 26.5512 38.5356 25.1043 38.5369C20.6539 38.5401 16.1606 38.5395 11.6239 38.535C11.2834 38.535 10.989 38.5408 10.6779 38.4922C9.67944 38.3381 8.84454 37.8762 8.17445 37.1067C8.00901 36.9169 7.77649 36.5594 7.47817 36.0347C5.18556 32.0077 2.86419 27.9309 0.515365 23.8042C-0.20519 22.5391 -0.149615 20.9308 0.553692 19.6956C2.89358 15.5851 5.28712 11.38 7.73561 7.07964C8.48235 5.76797 9.86341 5.02891 11.3365 5.02826C15.6687 5.02761 20.9426 5.02696 27.158 5.02761C27.1797 5.02761 27.1931 5.05158 27.1823 5.07036L21.9059 14.3408C21.902 14.3485 21.9001 14.3576 21.902 14.3667ZM15.9345 23.7536C15.9191 23.7536 15.9096 23.7362 15.9172 23.7226L21.2019 14.4424C21.2134 14.4224 21.1994 14.3971 21.1764 14.3971H5.87353C5.85182 14.3971 5.83776 14.4211 5.84862 14.4405C8.44977 19.0103 11.0477 23.5736 13.6419 28.1304C14.0475 28.8435 14.6818 29.1719 15.4733 29.1707C20.535 29.1642 25.5438 29.1635 30.4989 29.1694C30.5174 29.1694 30.5289 29.1493 30.52 29.1324C29.7023 27.6951 28.9102 26.2954 28.1443 24.9325C27.8396 24.3904 27.4864 24.0101 26.8629 23.8249C26.6911 23.7737 26.4164 23.7485 26.0389 23.7498C22.6232 23.7608 19.2555 23.7621 15.9345 23.7536Z"
        fill="#0D0C21"></path>
    <path
        d="M163.323 30.2127C157.771 30.2127 154.428 26.8689 154.428 21.7072C154.428 16.513 157.836 13.1367 162.998 13.1367C167.998 13.1367 171.374 16.2532 171.439 21.1553C171.439 21.6422 171.406 22.1941 171.309 22.7135H159.2V22.9408C159.297 25.3106 160.823 26.739 163.128 26.739C164.978 26.739 166.277 25.9274 166.667 24.3692H171.179C170.66 27.6156 167.77 30.2127 163.323 30.2127ZM159.297 19.7269H166.829C166.504 17.6816 165.108 16.5454 163.031 16.5454C161.05 16.5454 159.557 17.7466 159.297 19.7269Z"
        fill="#0D0C21"></path>
    <path
        d="M148.282 15.4089V7.29297H152.859V30.0176H148.866L148.412 27.7127C147.308 29.1411 145.685 30.2124 143.282 30.2124C138.802 30.2124 135.523 26.9335 135.523 21.642C135.523 16.4802 138.802 13.1364 143.25 13.1364C145.555 13.1364 147.21 14.0454 148.282 15.4089ZM144.289 26.4791C146.788 26.4791 148.347 24.5312 148.347 21.7069C148.347 18.8501 146.788 16.8698 144.289 16.8698C141.789 16.8698 140.198 18.8176 140.198 21.6744C140.198 24.5312 141.789 26.4791 144.289 26.4791Z"
        fill="#0D0C21"></path>
    <path
        d="M125.831 30.2127C120.507 30.2127 117.033 26.804 117.033 21.6747C117.033 16.5454 120.507 13.1367 125.831 13.1367C131.155 13.1367 134.629 16.5454 134.629 21.6747C134.629 26.8364 131.155 30.2127 125.831 30.2127ZM125.831 26.4793C128.396 26.4793 129.986 24.499 129.986 21.6747C129.986 18.8503 128.396 16.8701 125.831 16.8701C123.266 16.8701 121.708 18.8503 121.708 21.6747C121.708 24.499 123.266 26.4793 125.831 26.4793Z"
        fill="#0D0C21"></path>
    <path
        d="M109.147 13.1367C112.751 13.1367 115.835 15.0521 115.835 20.7657V30.0179H111.257V21.2202C111.257 18.3959 110.186 16.9025 107.881 16.9025C105.511 16.9025 104.148 18.5906 104.148 21.4799V30.0179H99.5703V13.3315H103.563L103.985 15.4092C105.057 14.1106 106.582 13.1367 109.147 13.1367Z"
        fill="#0D0C21"></path>
    <path
        d="M89.2274 30.2127C83.9033 30.2127 80.4297 26.804 80.4297 21.6747C80.4297 16.5454 83.9033 13.1367 89.2274 13.1367C94.5514 13.1367 98.0251 16.5454 98.0251 21.6747C98.0251 26.8364 94.5514 30.2127 89.2274 30.2127ZM89.2274 26.4793C91.792 26.4793 93.3827 24.499 93.3827 21.6747C93.3827 18.8503 91.792 16.8701 89.2274 16.8701C86.6627 16.8701 85.1045 18.8503 85.1045 21.6747C85.1045 24.499 86.6627 26.4793 89.2274 26.4793Z"
        fill="#0D0C21"></path>
    <path
        d="M71.4361 30.2127C65.8848 30.2127 62.541 26.8689 62.541 21.7072C62.541 16.513 65.9497 13.1367 71.1114 13.1367C76.1109 13.1367 79.4871 16.2532 79.552 21.1553C79.552 21.6422 79.5196 22.1941 79.4222 22.7135H67.3132V22.9408C67.4106 25.3106 68.9364 26.739 71.2413 26.739C73.0917 26.739 74.3903 25.9274 74.7799 24.3692H79.2923C78.7729 27.6156 75.8836 30.2127 71.4361 30.2127ZM67.4106 19.7269H74.9422C74.6175 17.6816 73.2216 16.5454 71.1439 16.5454C69.1636 16.5454 67.6703 17.7466 67.4106 19.7269Z"
        fill="#0D0C21"></path>
    <path
        d="M56.5573 15.6337L56.9469 13.3288H60.9724V29.5282C60.9724 33.6511 58.4402 36.7027 52.0448 36.7027C47.4025 36.7027 44.2211 34.5926 43.9938 30.7294H48.6037C49.0257 32.3201 50.2918 33.2291 52.4019 33.2291C54.9666 33.2291 56.4924 31.963 56.4924 29.3659V27.6129C55.3886 29.0088 53.733 29.9178 51.3956 29.9178C46.9156 29.9503 43.6367 26.6714 43.6367 21.5097C43.6367 16.4129 46.9156 13.1016 51.3631 13.1016C53.7654 13.1016 55.4535 14.1729 56.5573 15.6337ZM52.4019 26.2494C54.9016 26.2494 56.4599 24.334 56.4599 21.5746C56.4599 18.7827 54.9016 16.8024 52.4019 16.8024C49.9022 16.8024 48.3115 18.7503 48.3115 21.5421C48.3115 24.334 49.9022 26.2494 52.4019 26.2494Z"
        fill="#0D0C21"></path>
</svg>
